<?xml version="1.0" standalone="no"?><!DOCTYPE svg PUBLIC "-//W3C//DTD SVG 1.1//EN" "http://www.w3.org/Graphics/SVG/1.1/DTD/svg11.dtd"><svg width="64" height="64" viewBox="0 0 64 64" version="1.1" xmlns="http://www.w3.org/2000/svg" xmlns:xlink="http://www.w3.org/1999/xlink"><defs><style type="text/css"><![CDATA[
@font-face { font-family: ifont; src: url("//at.alicdn.com/t/font_1442373896_4754455.eot?#iefix") format("embedded-opentype"), url("//at.alicdn.com/t/font_1442373896_4754455.woff") format("woff"), url("//at.alicdn.com/t/font_1442373896_4754455.ttf") format("truetype"), url("//at.alicdn.com/t/font_1442373896_4754455.svg#ifont") format("svg"); }

]]></style></defs><g class="transform-group"><g transform="scale(0.0625, 0.0625)"><path d="M960.20992 266.539008c0.631808-4.846592 0.001024-9.839616-1.927168-14.449664-6.780928-31.720448-29.535232-47.83104-67.851264-47.83104L162.226176 204.258304c-33.455104 0-69.622784 12.279808-87.202816 36.521984-1.422336 1.107968-2.761728 2.366464-3.987456 3.780608-5.67808 6.5536-7.773184 15.0016-6.453248 22.944768-0.249856 2.2016-0.384 4.457472-0.384 6.772736l0 448.128c0 46.414848 51.625984 98.028544 98.02752 98.028544l728.205312 0c46.414848 0 70.020096-51.613696 70.020096-98.028544L960.451584 274.279424C960.451584 271.62112 960.364544 269.047808 960.20992 266.539008zM162.226176 260.276224l728.205312 0c0.134144 0 0.258048-0.001024 0.390144-0.001024l-378.497024 301.66016L135.355392 261.502976C143.941632 259.915776 154.483712 260.276224 162.226176 260.276224zM890.431488 764.417024 162.226176 764.417024c-15.439872 0-42.011648-26.556416-42.011648-42.010624L120.214528 321.148928l373.77024 299.017216c5.265408 4.568064 11.803648 6.838272 18.33984 6.838272 6.537216 0 13.074432-2.270208 18.338816-6.838272l373.771264-299.006976 0 401.248256C904.435712 737.861632 905.88672 764.417024 890.431488 764.417024z" fill="#000000"></path></g></g></svg>