<?xml version="1.0" encoding="utf-8"?>
<!-- Generator: Adobe Illustrator 16.0.0, SVG Export Plug-In . SVG Version: 6.00 Build 0)  -->
<!DOCTYPE svg PUBLIC "-//W3C//DTD SVG 1.1//EN" "http://www.w3.org/Graphics/SVG/1.1/DTD/svg11.dtd">
<svg version="1.1" id="Layer_1" xmlns="http://www.w3.org/2000/svg" xmlns:xlink="http://www.w3.org/1999/xlink" x="0px" y="0px"
	 width="18px" height="18px" viewBox="0 0 18 18" enable-background="new 0 0 18 18" xml:space="preserve">
<g display="none">
	<path display="inline" d="M16.732,7.525H1.527c-0.7,0-1.267,0.568-1.267,1.268c0,0.699,0.567,1.267,1.267,1.267h15.206
		c0.7,0,1.268-0.568,1.268-1.267C18,8.093,17.433,7.525,16.732,7.525z M1.527,4.991h15.206c0.7,0,1.268-0.567,1.268-1.267
		s-0.567-1.267-1.268-1.267H1.527c-0.7,0-1.267,0.567-1.267,1.267S0.827,4.991,1.527,4.991z M16.732,12.594H1.527
		c-0.7,0-1.267,0.567-1.267,1.267c0,0.701,0.567,1.268,1.267,1.268h15.206c0.7,0,1.268-0.566,1.268-1.268
		C18,13.161,17.433,12.594,16.732,12.594z"/>
</g>
<rect x="1" y="1" width="17" height="3"/>
<rect x="1" y="6" width="17" height="3"/>
<rect x="1" y="11" width="17" height="3"/>
</svg>
